<svg width="16" height="16" viewBox="0 0 16 16" fill="none" xmlns="http://www.w3.org/2000/svg">
<path d="M12.4189 7.99984C12.4189 5.5459 10.4933 3.58079 8.14746 3.58079C6.60286 3.58084 5.2449 4.43085 4.49329 5.71412H5.48793C5.74037 5.71416 5.94508 5.91882 5.94508 6.17127C5.94508 6.42372 5.74037 6.62837 5.48793 6.62841H3.12365C2.87117 6.62841 2.6665 6.42374 2.6665 6.17127V3.73317C2.6665 3.4807 2.87117 3.27603 3.12365 3.27603C3.37612 3.27603 3.58079 3.4807 3.58079 3.73317V5.71412H3.62305C3.58046 5.59415 3.58564 5.45768 3.65281 5.33793C4.54551 3.74652 6.22057 2.66656 8.14746 2.6665C11.0245 2.6665 13.3332 5.06768 13.3332 7.99984C13.3332 10.932 11.0245 13.3332 8.14746 13.3332C5.83968 13.3331 3.8956 11.7856 3.21888 9.66234C3.14234 9.42184 3.27542 9.16458 3.51591 9.08793C3.75642 9.01135 4.01366 9.14445 4.09031 9.38496C4.65458 11.1551 6.26458 12.4188 8.14746 12.4189C10.4933 12.4189 12.4189 10.4538 12.4189 7.99984Z" fill="#212121" style="fill:#212121;fill:color(display-p3 0.1294 0.1294 0.1294);fill-opacity:1;"/>
</svg>
